<svg width="16" height="16" viewBox="0 0 16 16" fill="none" xmlns="http://www.w3.org/2000/svg">
<path d="M14 14.375C14 14.975 13.475 15.5 12.875 15.5H8.75C8.45 15.5 8.225 15.425 8 15.2L5 12.05L5.525 11.45C5.675 11.3 5.9 11.225 6.125 11.225H6.275L8 12.5V5.75C8 5.3 8.3 5 8.75 5C9.2 5 9.5 5.3 9.5 5.75V9.125L10.4 9.2L13.325 10.85C13.7 11 14 11.45 14 11.825V14.375ZM14 0.5H2C1.175 0.5 0.5 1.175 0.5 2V8C0.5 8.825 1.175 9.5 2 9.5H5V8H2V2H14V8H12.5V9.5H14C14.825 9.5 15.5 8.825 15.5 8V2C15.5 1.175 14.825 0.5 14 0.5Z" fill="white"/>
</svg>
